# xmcd CD database file
#
# Track frame offsets:
#	150
#	22913
#	58604
#	75481
#	99035
#	114395
#	132008
#	148501
#	171359
#	192945
#	211034
#	237127
#	260377
#
# Disc length: 3699 seconds
#
# Revision: 0
# Processed by: cddbd v1.5.2PL0 Copyright (c) Steve Scherf et al.
# Submitted via: CDex 1.51
#
DISCID=9c0e710d
DTITLE=Hojas Blues Band - Live at Myllyblues - Saarijärvi, Lannevesi, 21.7.2004
DYEAR=2007
DGENRE=Blues
TTITLE0=Kansas City
TTITLE1=My New Chick
TTITLE2=Don't Boss Me (Baby)
TTITLE3=Steady Rollin' Man
TTITLE4=Seven Nights To Rock
TTITLE5=Need My Baby
TTITLE6=Luumupuu
TTITLE7=One Way Out
TTITLE8=Diddy Wah Diddy
TTITLE9=Too Much Boogie
TTITLE10=Help Me
TTITLE11=Sonny Boy Blow
TTITLE12=When The Saints Go Marchin' In
EXTD=YEAR: 2007
EXTT0=
EXTT1=
EXTT2=
EXTT3=
EXTT4=
EXTT5=
EXTT6=
EXTT7=
EXTT8=
EXTT9=
EXTT10=
EXTT11=
EXTT12=
PLAYORDER=
